<svg fill="none" height="21" viewBox="0 0 275 21" width="275" xmlns="http://www.w3.org/2000/svg"><g fill="#fff"><rect height="21" rx="1" transform="matrix(-1 0 0 -1 514 42)" width="2" x="257" y="21"/><rect height="21" rx="1" transform="matrix(-1 0 0 -1 334 42)" width="2" x="167" y="21"/><rect height="21" rx="1" transform="matrix(-1 0 0 -1 154 42)" width="2" x="77" y="21"/><rect height="21" rx="1" transform="matrix(-1 0 0 -1 454 42)" width="2" x="227" y="21"/><rect height="21" rx="1" transform="matrix(-1 0 0 -1 274 42)" width="2" x="137" y="21"/><rect height="21" rx="1" transform="matrix(-1 0 0 -1 94 42)" width="2" x="47" y="21"/><rect height="21" rx="1" transform="matrix(-1 0 0 -1 394 42)" width="2" x="197" y="21"/><rect height="21" rx="1" transform="matrix(-1 0 0 -1 214 42)" width="2" x="107" y="21"/><rect height="21" rx="1" transform="matrix(-1 0 0 -1 34 42)" width="2" x="17" y="21"/><rect height="21" rx="1" transform="matrix(-1 0 0 -1 508 42)" width="2" x="254" y="21"/><rect height="21" rx="1" transform="matrix(-1 0 0 -1 328 42)" width="2" x="164" y="21"/><rect height="21" rx="1" transform="matrix(-1 0 0 -1 148 42)" width="2" x="74" y="21"/><rect height="21" rx="1" transform="matrix(-1 0 0 -1 448 42)" width="2" x="224" y="21"/><rect height="21" rx="1" transform="matrix(-1 0 0 -1 268 42)" width="2" x="134" y="21"/><rect height="21" rx="1" transform="matrix(-1 0 0 -1 88 42)" width="2" x="44" y="21"/><rect height="21" rx="1" transform="matrix(-1 0 0 -1 388 42)" width="2" x="194" y="21"/><rect height="21" rx="1" transform="matrix(-1 0 0 -1 208 42)" width="2" x="104" y="21"/><rect height="21" rx="1" transform="matrix(-1 0 0 -1 28 42)" width="2" x="14" y="21"/><rect height="16" rx="1" transform="matrix(-1 0 0 -1 502 38)" width="2" x="251" y="19"/><rect height="16" rx="1" transform="matrix(-1 0 0 -1 322 38)" width="2" x="161" y="19"/><rect height="16" rx="1" transform="matrix(-1 0 0 -1 142 38)" width="2" x="71" y="19"/><rect height="16" rx="1" transform="matrix(-1 0 0 -1 442 38)" width="2" x="221" y="19"/><rect height="16" rx="1" transform="matrix(-1 0 0 -1 262 38)" width="2" x="131" y="19"/><rect height="16" rx="1" transform="matrix(-1 0 0 -1 82 38)" width="2" x="41" y="19"/><rect height="16" rx="1" transform="matrix(-1 0 0 -1 382 38)" width="2" x="191" y="19"/><rect height="16" rx="1" transform="matrix(-1 0 0 -1 202 38)" width="2" x="101" y="19"/><rect height="16" rx="1" transform="matrix(-1 0 0 -1 22 38)" width="2" x="11" y="19"/><rect height="11" rx="1" transform="matrix(-1 0 0 -1 550 34)" width="2" x="275" y="17"/><rect height="11" rx="1" transform="matrix(-1 0 0 -1 370 34)" width="2" x="185" y="17"/><rect height="11" rx="1" transform="matrix(-1 0 0 -1 190 34)" width="2" x="95" y="17"/><rect height="11" rx="1" transform="matrix(-1 0 0 -1 490 34)" width="2" x="245" y="17"/><rect height="11" rx="1" transform="matrix(-1 0 0 -1 310 34)" width="2" x="155" y="17"/><rect height="11" rx="1" transform="matrix(-1 0 0 -1 130 34)" width="2" x="65" y="17"/><rect height="11" rx="1" transform="matrix(-1 0 0 -1 430 34)" width="2" x="215" y="17"/><rect height="11" rx="1" transform="matrix(-1 0 0 -1 250 34)" width="2" x="125" y="17"/><rect height="11" rx="1" transform="matrix(-1 0 0 -1 70 34)" width="2" x="35" y="17"/><rect height="11" rx="1" transform="matrix(-1 0 0 -1 10 34)" width="2" x="5" y="17"/><rect height="16" rx="1" transform="matrix(-1 0 0 -1 544 38)" width="2" x="272" y="19"/><rect height="16" rx="1" transform="matrix(-1 0 0 -1 364 38)" width="2" x="182" y="19"/><rect height="16" rx="1" transform="matrix(-1 0 0 -1 184 38)" width="2" x="92" y="19"/><rect height="16" rx="1" transform="matrix(-1 0 0 -1 484 38)" width="2" x="242" y="19"/><rect height="16" rx="1" transform="matrix(-1 0 0 -1 304 38)" width="2" x="152" y="19"/><rect height="16" rx="1" transform="matrix(-1 0 0 -1 124 38)" width="2" x="62" y="19"/><rect height="16" rx="1" transform="matrix(-1 0 0 -1 424 38)" width="2" x="212" y="19"/><rect height="16" rx="1" transform="matrix(-1 0 0 -1 244 38)" width="2" x="122" y="19"/><rect height="16" rx="1" transform="matrix(-1 0 0 -1 64 38)" width="2" x="32" y="19"/><rect height="16" rx="1" transform="matrix(-1 0 0 -1 4 38)" width="2" x="2" y="19"/><rect height="21" rx="1" transform="matrix(-1 0 0 -1 538 42)" width="2" x="269" y="21"/><rect height="21" rx="1" transform="matrix(-1 0 0 -1 358 42)" width="2" x="179" y="21"/><rect height="21" rx="1" transform="matrix(-1 0 0 -1 178 42)" width="2" x="89" y="21"/><rect height="21" rx="1" transform="matrix(-1 0 0 -1 478 42)" width="2" x="239" y="21"/><rect height="21" rx="1" transform="matrix(-1 0 0 -1 298 42)" width="2" x="149" y="21"/><rect height="21" rx="1" transform="matrix(-1 0 0 -1 118 42)" width="2" x="59" y="21"/><rect height="21" rx="1" transform="matrix(-1 0 0 -1 418 42)" width="2" x="209" y="21"/><rect height="21" rx="1" transform="matrix(-1 0 0 -1 238 42)" width="2" x="119" y="21"/><rect height="21" rx="1" transform="matrix(-1 0 0 -1 58 42)" width="2" x="29" y="21"/><rect height="21" rx="1" transform="matrix(-1 0 0 -1 538 42)" width="2" x="269" y="21"/><rect height="21" rx="1" transform="matrix(-1 0 0 -1 358 42)" width="2" x="179" y="21"/><rect height="21" rx="1" transform="matrix(-1 0 0 -1 178 42)" width="2" x="89" y="21"/><rect height="21" rx="1" transform="matrix(-1 0 0 -1 478 42)" width="2" x="239" y="21"/><rect height="21" rx="1" transform="matrix(-1 0 0 -1 298 42)" width="2" x="149" y="21"/><rect height="21" rx="1" transform="matrix(-1 0 0 -1 118 42)" width="2" x="59" y="21"/><rect height="21" rx="1" transform="matrix(-1 0 0 -1 418 42)" width="2" x="209" y="21"/><rect height="21" rx="1" transform="matrix(-1 0 0 -1 238 42)" width="2" x="119" y="21"/><rect height="21" rx="1" transform="matrix(-1 0 0 -1 58 42)" width="2" x="29" y="21"/><rect height="15" rx="1" transform="matrix(-1 0 0 -1 532 36)" width="2" x="266" y="18"/><rect height="15" rx="1" transform="matrix(-1 0 0 -1 352 36)" width="2" x="176" y="18"/><rect height="15" rx="1" transform="matrix(-1 0 0 -1 172 36)" width="2" x="86" y="18"/><rect height="15" rx="1" transform="matrix(-1 0 0 -1 472 36)" width="2" x="236" y="18"/><rect height="15" rx="1" transform="matrix(-1 0 0 -1 292 36)" width="2" x="146" y="18"/><rect height="15" rx="1" transform="matrix(-1 0 0 -1 112 36)" width="2" x="56" y="18"/><rect height="15" rx="1" transform="matrix(-1 0 0 -1 412 36)" width="2" x="206" y="18"/><rect height="15" rx="1" transform="matrix(-1 0 0 -1 232 36)" width="2" x="116" y="18"/><rect height="15" rx="1" transform="matrix(-1 0 0 -1 52 36)" width="2" x="26" y="18"/><rect height="13" rx="1" transform="matrix(-1 0 0 -1 526 34)" width="2" x="263" y="17"/><rect height="13" rx="1" transform="matrix(-1 0 0 -1 346 34)" width="2" x="173" y="17"/><rect height="13" rx="1" transform="matrix(-1 0 0 -1 166 34)" width="2" x="83" y="17"/><rect height="13" rx="1" transform="matrix(-1 0 0 -1 466 34)" width="2" x="233" y="17"/><rect height="13" rx="1" transform="matrix(-1 0 0 -1 286 34)" width="2" x="143" y="17"/><rect height="13" rx="1" transform="matrix(-1 0 0 -1 106 34)" width="2" x="53" y="17"/><rect height="13" rx="1" transform="matrix(-1 0 0 -1 406 34)" width="2" x="203" y="17"/><rect height="13" rx="1" transform="matrix(-1 0 0 -1 226 34)" width="2" x="113" y="17"/><rect height="13" rx="1" transform="matrix(-1 0 0 -1 46 34)" width="2" x="23" y="17"/><rect height="18" rx="1" transform="matrix(-1 0 0 -1 520 38)" width="2" x="260" y="19"/><rect height="18" rx="1" transform="matrix(-1 0 0 -1 340 38)" width="2" x="170" y="19"/><rect height="18" rx="1" transform="matrix(-1 0 0 -1 160 38)" width="2" x="80" y="19"/><rect height="18" rx="1" transform="matrix(-1 0 0 -1 460 38)" width="2" x="230" y="19"/><rect height="18" rx="1" transform="matrix(-1 0 0 -1 280 38)" width="2" x="140" y="19"/><rect height="18" rx="1" transform="matrix(-1 0 0 -1 100 38)" width="2" x="50" y="19"/><rect height="18" rx="1" transform="matrix(-1 0 0 -1 400 38)" width="2" x="200" y="19"/><rect height="18" rx="1" transform="matrix(-1 0 0 -1 220 38)" width="2" x="110" y="19"/><rect height="18" rx="1" transform="matrix(-1 0 0 -1 40 38)" width="2" x="20" y="19"/></g></svg>